<svg width="512" height="512" viewBox="0 0 512 512" role="img" aria-labelledby="title desc" xmlns="http://www.w3.org/2000/svg">
  <title>open-Xdownload icon</title>
  <desc>A dark rounded square with a white X crossed by a blue download arrow.</desc>
  <defs>
    <linearGradient id="bg" x1="80" y1="48" x2="432" y2="464" gradientUnits="userSpaceOnUse">
      <stop offset="0" stop-color="#111827"/>
      <stop offset="0.52" stop-color="#0f172a"/>
      <stop offset="1" stop-color="#102033"/>
    </linearGradient>
    <linearGradient id="arrow" x1="204" y1="132" x2="314" y2="388" gradientUnits="userSpaceOnUse">
      <stop offset="0" stop-color="#60a5fa"/>
      <stop offset="1" stop-color="#22d3ee"/>
    </linearGradient>
    <filter id="lift" x="-16%" y="-16%" width="132%" height="132%" color-interpolation-filters="sRGB">
      <feDropShadow dx="0" dy="12" stdDeviation="16" flood-color="#020617" flood-opacity="0.28"/>
    </filter>
  </defs>
  <rect width="512" height="512" rx="104" fill="url(#bg)"/>
  <path d="M150 144L362 368M362 144L150 368" fill="none" stroke="#f8fafc" stroke-width="58" stroke-linecap="round" stroke-linejoin="round" opacity="0.96"/>
  <g filter="url(#lift)">
    <path d="M256 128V317M197 258L256 317L315 258M174 384H338" fill="none" stroke="#07111f" stroke-width="82" stroke-linecap="round" stroke-linejoin="round" opacity="0.92"/>
    <path d="M256 128V317M197 258L256 317L315 258M174 384H338" fill="none" stroke="url(#arrow)" stroke-width="48" stroke-linecap="round" stroke-linejoin="round"/>
  </g>
  <path d="M111 110C147 78 196 62 256 62C318 62 369 80 405 115" fill="none" stroke="#ffffff" stroke-width="10" stroke-linecap="round" opacity="0.08"/>
</svg>
